<?xml version="1.0" standalone="no"?>
<!DOCTYPE svg PUBLIC "-//W3C//DTD SVG 20010904//EN"
 "http://www.w3.org/TR/2001/REC-SVG-20010904/DTD/svg10.dtd">
<svg version="1.0" xmlns="http://www.w3.org/2000/svg"
 width="768.000000pt" height="768.000000pt" viewBox="0 0 768.000000 768.000000"
 preserveAspectRatio="xMidYMid meet">
<metadata>
Created by potrace 1.14, written by Peter Selinger 2001-2017
</metadata>
<g transform="translate(0.000000,768.000000) scale(0.100000,-0.100000)"
fill="#000000" stroke="none">
<path d="M3870 6728 c-85 -7 -168 -22 -205 -38 -11 -4 -36 -14 -55 -21 -121
-43 -246 -121 -318 -198 -61 -66 -129 -210 -146 -311 -3 -19 -8 -46 -11 -60
-24 -120 -24 -449 0 -760 3 -36 7 -92 10 -125 2 -33 7 -96 12 -140 8 -90 9
-192 1 -246 -13 -86 -126 -278 -248 -420 -60 -69 -164 -216 -238 -334 -65
-105 -212 -396 -272 -540 -23 -55 -47 -113 -55 -130 -37 -83 -103 -303 -121
-405 -7 -39 -8 -159 -2 -166 2 -2 -25 -34 -62 -71 -36 -38 -83 -95 -105 -128
-77 -119 -177 -204 -256 -219 -252 -48 -320 -77 -338 -144 -11 -40 -8 -57 44
-246 17 -64 27 -127 28 -176 1 -73 -1 -81 -41 -150 -102 -176 -89 -308 38
-374 43 -23 166 -63 252 -82 10 -2 26 -6 36 -8 9 -2 51 -12 92 -21 213 -46
262 -58 340 -81 47 -14 144 -48 215 -76 72 -27 157 -60 191 -73 243 -94 462
-76 583 47 33 34 79 121 88 167 3 14 6 33 8 41 2 8 4 22 4 31 1 18 13 19 386
25 105 1 303 5 440 8 138 3 279 1 315 -4 36 -5 81 -12 100 -14 58 -8 67 -15
74 -58 15 -92 78 -187 151 -226 83 -44 324 -53 427 -15 66 24 145 75 206 132
93 87 286 227 457 331 55 34 107 65 115 70 8 5 74 44 145 86 208 123 254 172
242 259 -8 56 -32 82 -120 126 -124 61 -223 146 -265 224 -9 19 -30 111 -38
178 -17 132 -62 232 -113 248 -11 4 -9 20 12 84 14 44 28 94 31 110 3 17 8 41
12 55 14 52 13 245 -2 325 -48 260 -183 581 -360 859 -64 100 -92 141 -231
333 -188 261 -293 451 -358 644 -33 100 -76 274 -89 362 -8 51 -8 185 -1 217
12 53 6 179 -14 275 -53 253 -158 475 -275 583 -51 47 -156 118 -189 127 -12
4 -49 19 -82 35 -131 62 -292 91 -445 78z m-1118 -2925 c-9 -21 -88 -175 -138
-270 -59 -111 -37 -49 31 88 63 128 103 199 110 199 3 0 1 -8 -3 -17z m-176
-370 c-8 -40 -14 -79 -22 -158 -4 -38 -8 -72 -9 -75 -1 -4 -18 -153 -19 -172
-1 -3 -4 -10 -8 -14 -5 -4 -9 10 -9 32 -1 21 -2 50 -3 64 -2 49 24 216 45 282
22 69 35 90 25 41z"/>
</g>
</svg>
